<svg width="16" height="16" viewBox="0 0 16 16" fill="none" xmlns="http://www.w3.org/2000/svg">
<path d="M4.25467 2.6455C5.31716 1.79421 6.63854 1.33133 8 1.3335C9.41667 1.3335 10.7187 1.82417 11.7453 2.6455L12.714 1.67684L13.6567 2.6195L12.688 3.58817C13.5393 4.65067 14.0022 5.97204 14 7.3335V8.00017H2V7.3335C2 5.91684 2.49067 4.61484 3.312 3.58817L2.34333 2.62017L3.286 1.6775L4.25467 2.64617V2.6455ZM2 9.3335H14V14.0002C14 14.177 13.9298 14.3466 13.8047 14.4716C13.6797 14.5966 13.5101 14.6668 13.3333 14.6668H2.66667C2.48986 14.6668 2.32029 14.5966 2.19526 14.4716C2.07024 14.3466 2 14.177 2 14.0002V9.3335ZM6 6.00017C6.17681 6.00017 6.34638 5.92993 6.4714 5.80491C6.59643 5.67988 6.66667 5.51031 6.66667 5.3335C6.66667 5.15669 6.59643 4.98712 6.4714 4.8621C6.34638 4.73708 6.17681 4.66684 6 4.66684C5.82319 4.66684 5.65362 4.73708 5.5286 4.8621C5.40357 4.98712 5.33333 5.15669 5.33333 5.3335C5.33333 5.51031 5.40357 5.67988 5.5286 5.80491C5.65362 5.92993 5.82319 6.00017 6 6.00017ZM10 6.00017C10.1768 6.00017 10.3464 5.92993 10.4714 5.80491C10.5964 5.67988 10.6667 5.51031 10.6667 5.3335C10.6667 5.15669 10.5964 4.98712 10.4714 4.8621C10.3464 4.73708 10.1768 4.66684 10 4.66684C9.82319 4.66684 9.65362 4.73708 9.5286 4.8621C9.40357 4.98712 9.33333 5.15669 9.33333 5.3335C9.33333 5.51031 9.40357 5.67988 9.5286 5.80491C9.65362 5.92993 9.82319 6.00017 10 6.00017Z" fill="#7C7C7C"/>
</svg>
