<svg width="13" height="13" viewBox="0 0 13 13" fill="none" xmlns="http://www.w3.org/2000/svg">
<path d="M1.55988 10.9316H3.37992V12.7046C3.37992 12.7909 3.4042 12.8615 3.45307 12.9167C3.5018 12.9722 3.5641 13 3.63999 13H4.9968C5.06722 13 5.12815 12.9722 5.17962 12.9167C5.23108 12.8615 5.25674 12.7908 5.25674 12.7046V10.9316H9.35987C9.4356 10.9316 9.49792 10.9042 9.54676 10.8487C9.59565 10.7931 9.61992 10.7225 9.61992 10.6362V9.45435C9.61992 9.3686 9.59565 9.29748 9.54676 9.24228C9.49805 9.18672 9.4356 9.15895 9.35987 9.15895H5.2566V8.06941H8.01911C9.10239 8.06941 9.98654 7.69431 10.6719 6.94305C11.3571 6.19258 11.6998 5.22314 11.6998 4.0347C11.6998 2.84706 11.3571 1.8776 10.6719 1.12636C9.98667 0.375861 9.10237 0 8.01911 0H3.63986C3.56394 0 3.50178 0.0277519 3.45294 0.0829754C3.4042 0.138505 3.37978 0.209605 3.37978 0.295383V6.10305H1.55988C1.48399 6.10305 1.4218 6.13223 1.37296 6.19069C1.32425 6.24917 1.2998 6.31841 1.2998 6.39841V7.77398C1.2998 7.86024 1.32409 7.9309 1.37296 7.98641C1.42182 8.04196 1.48385 8.06938 1.55988 8.06938H3.37992V9.15892H1.55988C1.48399 9.15892 1.4218 9.1867 1.37296 9.24225C1.32425 9.29745 1.2998 9.36842 1.2998 9.45433V10.6362C1.2998 10.7225 1.32409 10.7931 1.37296 10.8486C1.4218 10.9042 1.48397 10.9316 1.55988 10.9316ZM5.2566 1.96682H7.85662C8.43072 1.96682 8.89377 2.15756 9.24597 2.53919C9.59798 2.92083 9.77407 3.41958 9.77407 4.03486C9.77407 4.65045 9.59798 5.14934 9.24597 5.53053C8.89377 5.91248 8.4307 6.10323 7.85662 6.10323H5.2566V1.96682Z" fill="#222222"/>
</svg>
